<svg width="30" height="30" viewBox="0 0 30 30" fill="none" xmlns="http://www.w3.org/2000/svg">
<path d="M29.8814 8.54886C29.6939 7.98636 29.3189 7.56449 28.8032 7.28324L20.5064 3.06449C20.1782 2.92386 19.8032 3.01761 19.5689 3.29886C18.8189 4.37699 16.9439 5.08011 14.9751 5.08011C13.0532 5.08011 11.1782 4.37699 10.4282 3.29886C10.1939 3.01761 9.81885 2.92386 9.49073 3.06449L1.19385 7.28324C0.678226 7.56449 0.303226 7.98636 0.115726 8.54886C-0.0717736 9.11136 -0.0248986 9.67386 0.209476 10.1895L2.50635 14.9239C3.02198 15.9551 4.33448 16.377 5.36573 15.9082L7.52198 14.9707V24.8145C7.52198 26.0332 8.45948 26.9707 9.67823 26.9707H20.3189C21.5376 26.9707 22.522 26.0332 22.522 24.8145L22.4751 14.9707L24.5845 15.8614C25.6626 16.377 26.9751 15.9551 27.4907 14.877L29.7876 10.1895C30.022 9.67386 30.0689 9.11136 29.8814 8.54886ZM28.4282 9.53324L26.1782 14.2207C25.9907 14.5489 25.5689 14.6895 25.2407 14.502L22.0532 13.1426C21.8189 13.0489 21.5376 13.0957 21.3501 13.2364C21.1157 13.377 20.9751 13.6114 20.9751 13.8457L21.022 24.8145C21.022 25.1895 20.6939 25.4707 20.3189 25.4707H9.67823C9.30323 25.4707 9.02198 25.1895 9.02198 24.8145V13.8457C9.02198 13.6114 8.88135 13.377 8.64698 13.2364C8.55323 13.1426 8.4126 13.0957 8.27198 13.0957C8.13135 13.0957 8.0376 13.1426 7.94385 13.1426L4.75635 14.502C4.42823 14.6895 4.00635 14.5489 3.86573 14.2207L1.56885 9.53324C1.4751 9.34574 1.4751 9.20511 1.52198 9.01761C1.56885 8.87699 1.70948 8.73636 1.89698 8.64261L9.63135 4.65824C10.8032 5.87699 12.8189 6.58011 15.022 6.58011C17.2251 6.58011 19.1939 5.87699 20.3657 4.65824L28.1001 8.64261C28.2876 8.73636 28.4282 8.87699 28.4751 9.01761C28.522 9.20511 28.522 9.34574 28.4282 9.53324Z" fill="#5C8EE6"/>
</svg>
